# xmcd
#
# Track frame offsets: 
#        150
#        13797
#        47062
#        67938
#        94347
#        127487
#        142752
#        154947
#
# Disc length: 2478 seconds
#
# Revision: 0
# Processed by: cddbd v1.5.2PL0 Copyright (c) Steve Scherf et al.
# Submitted via: ExactAudioCopy v1.0b4
#
DISCID=6d09ac08
DTITLE=Eric Burdon - Eric Burdon and The Animals (LP)
DYEAR=1900
DGENRE=Blues
TTITLE0=Good Times
TTITLE1=Sky Pilot
TTITLE2=Monterey
TTITLE3=Paint It Black
TTITLE4=River Deep Mountain High
TTITLE5=San Francisco Nights
TTITLE6=Help Me Girl
TTITLE7=To Love Somebody
EXTD=
EXTT0=
EXTT1=
EXTT2=
EXTT3=
EXTT4=
EXTT5=
EXTT6=
EXTT7=
PLAYORDER=
